<svg xmlns="http://www.w3.org/2000/svg" xmlns:xlink="http://www.w3.org/1999/xlink" version="1.1" width="861.7" height="606.7" viewBox="10.3 58.9 861.7 606.7"><g><g transform="translate(148,262)"><g><g>
<path d="M102.5,0c-22.2,0,-40.9,10.4,-47.7,25C24.1,27.6,0,46.8,0,70.5c0,25.2,27.6,45.9,61.4,45.9c1.7,0,3.6,0,5.3,-0.3c5.9,15,24.2,25.9,46.5,25.9c18.2,0,34.3,-7.7,42.3,-18.9c8.4,6.6,20.5,10.7,33.8,10.7c20.9,0,38.7,-10,45.1,-24c0.4,0,0.4,0,0.9,0c28,0,50.7,-17,50.7,-37.9s-22.7,-38,-50.9,-38c-5.4,0,-10.3,0.7,-14.7,1.7c-4.5,-14.3,-21.8,-25,-42.3,-25c-12,0,-22.7,3.6,-30.8,9.7C139,8.3,122.1,0,102.5,0L102.5,0z" stroke="#000000" stroke-dasharray="none" fill="#FFFFFF"/>
<rect x="26" y="44.2" width="229.4" height="53.9" fill="none"/>
<circle fill="none" cx="147.4" cy="20.2" r="0.1"/>
<circle fill="none" cx="187.8" cy="11.4" r="0.1"/>
<circle fill="none" cx="220.5" cy="35.5" r="0.1"/>
<circle fill="none" cx="286" cy="70.6" r="0.1"/>
<circle fill="none" cx="234.4" cy="109.8" r="0.1"/>
<circle fill="none" cx="192.9" cy="133.6" r="0.1"/>
<circle fill="none" cx="155.5" cy="123.1" r="0.1"/>
<circle fill="none" cx="111.7" cy="142" r="0.1"/>
<circle fill="none" cx="0" cy="70.5" r="0.1"/>
<circle fill="none" cx="66.7" cy="116.1" r="0.1"/>
<circle fill="none" cx="54.8" cy="25" r="0.1"/>
<circle fill="none" cx="102.4" cy="0" r="0.1"/>
</g></g><rect stroke="none" stroke-width="1" fill="#FFFFFF" x="0" y="0" width="40" height="20" transform="translate(52.3,-62.1)"/><path stroke="#000000" fill="none" d="M102.4,0 C109.9,-28.2 70.5,-13.9 78.1 -42.1"/><text font-family="OpenSansCondensedLight" font-size="14pt" fill="black" transform="translate(52.3,-62.1)" text-anchor="middle"><tspan x="20" y="16.3">102</tspan></text><rect stroke-width="0" fill="none" width="229.4" height="53.9" transform="translate(26,44.2)"/><text font-family="OpenSansCondensedLight" font-size="14pt" fill="black" transform="translate(26,44.2)" text-anchor="middle"><tspan x="114.7" y="33.2">MESSAGING SYSTEM</tspan></text><path stroke="#000000" fill="none" transform="translate(26,44.2)" d="M 0 0"/></g><g transform="translate(496,287)"><g><g>
<g stroke="#000000" stroke-dasharray="none" fill="#FFFFFF">
    <path d="M89.8,14.8H0v60.3c0,8.1,20.1,14.8,45,14.8s45,-6.7,45,-14.8v-60.3L89.8,14.8L89.8,14.8z"/>
    <path d="M45,0C20.1,0,0,6.7,0,14.8s20.1,14.8,45,14.8s45,-6.7,45,-14.8C89.8,6.7,69.6,0,45,0L45,0z"/>
</g>
<rect x="4.8" y="32.9" width="80.2" height="42.7" fill="none"/>
<circle fill="none" cx="45" cy="0" r="0.1"/>
<circle fill="none" cx="68.6" cy="2.3" r="0.1"/>
<circle fill="none" cx="90" cy="14.8" r="0.1"/>
<circle fill="none" cx="90" cy="45" r="0.1"/>
<circle fill="none" cx="90" cy="75.1" r="0.1"/>
<circle fill="none" cx="69.8" cy="87.5" r="0.1"/>
<circle fill="none" cx="45" cy="90" r="0.1"/>
<circle fill="none" cx="18.9" cy="87.1" r="0.1"/>
<circle fill="none" cx="0" cy="75.1" r="0.1"/>
<circle fill="none" cx="0" cy="45" r="0.1"/>
<circle fill="none" cx="0" cy="14.8" r="0.1"/>
<circle fill="none" cx="21.2" cy="2.3" r="0.1"/>
</g></g><rect stroke="none" stroke-width="1" fill="#FFFFFF" x="0" y="0" width="40" height="20" transform="translate(79.7,129.3)"/><path stroke="#000000" fill="none" d="M69.8,87.5 C62.2,115.5 101.4,101.3 93.9 129.3"/><text font-family="OpenSansCondensedLight" font-size="14pt" fill="black" transform="translate(79.7,129.3)" text-anchor="middle"><tspan x="20" y="16.3">104</tspan></text><rect stroke-width="0" fill="none" width="80.2" height="42.7" transform="translate(4.8,32.9)"/><text font-family="OpenSansCondensedLight" font-size="14pt" fill="black" transform="translate(4.8,32.9)" text-anchor="middle"><tspan x="40.1" y="27.6">DEVICE DIR.</tspan></text><path stroke="#000000" fill="none" transform="translate(4.8,32.9)" d="M 0 0"/></g><g transform="translate(619,287)"><g><g>
<g stroke="#000000" stroke-dasharray="none" fill="#FFFFFF">
    <path d="M89.8,14.8H0v60.3c0,8.1,20.1,14.8,45,14.8s45,-6.7,45,-14.8v-60.3L89.8,14.8L89.8,14.8z"/>
    <path d="M45,0C20.1,0,0,6.7,0,14.8s20.1,14.8,45,14.8s45,-6.7,45,-14.8C89.8,6.7,69.6,0,45,0L45,0z"/>
</g>
<rect x="4.8" y="32.9" width="80.2" height="42.7" fill="none"/>
<circle fill="none" cx="45" cy="0" r="0.1"/>
<circle fill="none" cx="68.6" cy="2.3" r="0.1"/>
<circle fill="none" cx="90" cy="14.8" r="0.1"/>
<circle fill="none" cx="90" cy="45" r="0.1"/>
<circle fill="none" cx="90" cy="75.1" r="0.1"/>
<circle fill="none" cx="69.8" cy="87.5" r="0.1"/>
<circle fill="none" cx="45" cy="90" r="0.1"/>
<circle fill="none" cx="18.9" cy="87.1" r="0.1"/>
<circle fill="none" cx="0" cy="75.1" r="0.1"/>
<circle fill="none" cx="0" cy="45" r="0.1"/>
<circle fill="none" cx="0" cy="14.8" r="0.1"/>
<circle fill="none" cx="21.2" cy="2.3" r="0.1"/>
</g></g><rect stroke="none" stroke-width="1" fill="#FFFFFF" x="0" y="0" width="40" height="20" transform="translate(79.7,129.3)"/><path stroke="#000000" fill="none" d="M69.8,87.5 C62.2,115.5 101.4,101.3 93.9 129.3"/><text font-family="OpenSansCondensedLight" font-size="14pt" fill="black" transform="translate(79.7,129.3)" text-anchor="middle"><tspan x="20" y="16.3">106</tspan></text><rect stroke-width="0" fill="none" width="80.2" height="42.7" transform="translate(4.8,32.9)"/><text font-family="OpenSansCondensedLight" font-size="14pt" fill="black" transform="translate(4.8,32.9)" text-anchor="middle"><tspan x="40.1" y="17.1">SENSOR</tspan><tspan x="40.1" y="38.1">DATA STORE </tspan></text><path stroke="#000000" fill="none" transform="translate(4.8,32.9)" d="M 0 0"/></g><g transform="translate(742,291)"><g><g>
<g stroke="#000000" stroke-dasharray="none" fill="#FFFFFF">
    <path d="M89.8,14.8H0v60.3c0,8.1,20.1,14.8,45,14.8s45,-6.7,45,-14.8v-60.3L89.8,14.8L89.8,14.8z"/>
    <path d="M45,0C20.1,0,0,6.7,0,14.8s20.1,14.8,45,14.8s45,-6.7,45,-14.8C89.8,6.7,69.6,0,45,0L45,0z"/>
</g>
<rect x="4.8" y="32.9" width="80.2" height="42.7" fill="none"/>
<circle fill="none" cx="45" cy="0" r="0.1"/>
<circle fill="none" cx="68.6" cy="2.3" r="0.1"/>
<circle fill="none" cx="90" cy="14.8" r="0.1"/>
<circle fill="none" cx="90" cy="45" r="0.1"/>
<circle fill="none" cx="90" cy="75.1" r="0.1"/>
<circle fill="none" cx="69.8" cy="87.5" r="0.1"/>
<circle fill="none" cx="45" cy="90" r="0.1"/>
<circle fill="none" cx="18.9" cy="87.1" r="0.1"/>
<circle fill="none" cx="0" cy="75.1" r="0.1"/>
<circle fill="none" cx="0" cy="45" r="0.1"/>
<circle fill="none" cx="0" cy="14.8" r="0.1"/>
<circle fill="none" cx="21.2" cy="2.3" r="0.1"/>
</g></g><rect stroke="none" stroke-width="1" fill="#FFFFFF" x="0" y="0" width="40" height="20" transform="translate(79.7,129.3)"/><path stroke="#000000" fill="none" d="M69.8,87.5 C62.2,115.5 101.4,101.3 93.9 129.3"/><text font-family="OpenSansCondensedLight" font-size="14pt" fill="black" transform="translate(79.7,129.3)" text-anchor="middle"><tspan x="20" y="16.3">108</tspan></text><rect stroke-width="0" fill="none" width="80.2" height="42.7" transform="translate(4.8,32.9)"/><text font-family="OpenSansCondensedLight" font-size="14pt" fill="black" transform="translate(4.8,32.9)" text-anchor="middle"><tspan x="40.1" y="27.6">ANALYTIC DB</tspan></text><path stroke="#000000" fill="none" transform="translate(4.8,32.9)" d="M 0 0"/></g><g transform="translate(225,59)"><g><g>
<path d="M197.1,0c-42.7,0,-78.7,7.9,-91.7,19.2C46.3,21.2,0,36,0,54.1c0,19.4,53.1,35.2,118.1,35.2c3.3,0,6.9,0,10.2,-0.2c11.4,11.5,46.5,19.9,89.4,19.9c35,0,66.1,-5.9,81.3,-14.5c16.2,5.1,39.4,8.2,65,8.2c40.1,0,74.4,-7.6,86.6,-18.4c0.8,0,0.8,0,1.8,0c53.9,0,97.5,-13,97.5,-29.1s-43.7,-29.1,-97.8,-29.1c-10.4,0,-19.8,0.5,-28.2,1.3c-8.6,-11,-41.9,-19.2,-81.3,-19.2c-23.1,0,-43.7,2.8,-59.2,7.4C267.2,6.4,234.7,0,197.1,0L197.1,0z" stroke="#000000" stroke-dasharray="none" fill="#FFFFFF"/>
<rect x="49.9" y="33.9" width="441.2" height="41.3" fill="none"/>
<circle fill="none" cx="283.5" cy="15.5" r="0.1"/>
<circle fill="none" cx="361.2" cy="8.8" r="0.1"/>
<circle fill="none" cx="424.1" cy="27.3" r="0.1"/>
<circle fill="none" cx="550" cy="54.2" r="0.1"/>
<circle fill="none" cx="450.7" cy="84.3" r="0.1"/>
<circle fill="none" cx="370.9" cy="102.6" r="0.1"/>
<circle fill="none" cx="299" cy="94.5" r="0.1"/>
<circle fill="none" cx="214.9" cy="109" r="0.1"/>
<circle fill="none" cx="0" cy="54.1" r="0.1"/>
<circle fill="none" cx="128.3" cy="89.1" r="0.1"/>
<circle fill="none" cx="105.4" cy="19.2" r="0.1"/>
<circle fill="none" cx="196.9" cy="0" r="0.1"/>
</g></g><rect stroke="none" stroke-width="1" fill="#FFFFFF" x="0" y="0" width="40" height="20" transform="translate(589.9,44.1)"/><path stroke="#000000" fill="none" d="M550,54.2 C566.9,71.1 572.9,37.2 589.9 54.1"/><text font-family="OpenSansCondensedLight" font-size="14pt" fill="black" transform="translate(589.9,44.1)" text-anchor="middle"><tspan x="20" y="16.3">110</tspan></text><rect stroke-width="0" fill="none" width="441.2" height="41.3" transform="translate(49.9,33.9)"/><text font-family="OpenSansCondensedLight" font-size="14pt" fill="black" transform="translate(49.9,33.9)" text-anchor="middle"><tspan x="220.6" y="27">PLATFORM NETWORK</tspan></text><path stroke="#000000" fill="none" transform="translate(49.9,33.9)" d="M 0 0"/></g><g><path stroke="black" stroke-dasharray="none" d="M 787 291 C 802.7 250.8 818.3 210.7 809 186 C 799.7 161.3 765.3 152.2 731 143" fill="none"/><path fill="black" stroke="black" d="" transform="translate(787,291) scale(1,1) rotate(-78.2)"/><path fill="black" stroke="black" d="M 8 0 L 0 4 L 8 8 z" transform="translate(725.9,135.5) scale(1,1) rotate(28.9)"/><g><g label-idx="0" cursor="move" transform="translate(811.1, 194.2)"><rect fill="white" rx="3" ry="3" x="0" y="0" width="0" height="0"/><text text-anchor="middle" font-size="14pt" font-family="OpenSansCondensedLight" y="0.8em" display="none" xml:space="preserve" transform="translate(0,0)"/></g></g></g><g><path stroke="black" stroke-dasharray="none" d="M 663 376 C 669.4 389.5 675.8 402.9 689 416 C 702.2 429.1 722.2 441.7 739 437 C 755.8 432.3 769.4 410.1 783 388" fill="none"/><path fill="black" stroke="black" d="" transform="translate(663,376) scale(1,1) rotate(57)"/><path fill="black" stroke="black" d="M 8 0 L 0 4 L 8 8 z" transform="translate(791,384.7) scale(1,1) rotate(-228.3)"/><g><g label-idx="0" cursor="move" transform="translate(720.6, 436.3)"><rect fill="white" rx="3" ry="3" x="0" y="0" width="0" height="0"/><text text-anchor="middle" font-size="14pt" font-family="OpenSansCondensedLight" y="0.8em" display="none" xml:space="preserve" transform="translate(0,0)"/></g></g></g><g><path stroke="black" stroke-dasharray="none" d="M 434 333 C 481.5 388.4 528.9 443.9 581 463 C 633.1 482.1 689.7 464.9 724 447 C 758.3 429.1 770.1 410.6 782 392" fill="none"/><path fill="black" stroke="black" d="" transform="translate(434,333) scale(1,1) rotate(41.5)"/><path fill="black" stroke="black" d="M 8 0 L 0 4 L 8 8 z" transform="translate(790.8,388.9) scale(1,1) rotate(-223.6)"/><g><g label-idx="0" cursor="move" transform="translate(595.8, 467.5)"><rect fill="white" rx="3" ry="3" x="0" y="0" width="0" height="0"/><text text-anchor="middle" font-size="14pt" font-family="OpenSansCondensedLight" y="0.8em" display="none" xml:space="preserve" transform="translate(0,0)"/></g></g></g><g><path stroke="black" stroke-dasharray="none" d="M 434 333 C 447.3 307.2 460.5 281.3 475 273 C 489.5 264.7 505.3 273.8 521 283" fill="none"/><path fill="black" stroke="black" d="" transform="translate(434,333) scale(1,1) rotate(-55.7)"/><path fill="black" stroke="black" d="M 8 0 L 0 4 L 8 8 z" transform="translate(528.1,288.9) scale(1,1) rotate(-167.5)"/><g><g label-idx="0" cursor="move" transform="translate(465.8, 280.6)"><rect fill="white" rx="3" ry="3" x="0" y="0" width="0" height="0"/><text text-anchor="middle" font-size="14pt" font-family="OpenSansCondensedLight" y="0.8em" display="none" xml:space="preserve" transform="translate(0,0)"/></g></g></g><g><path stroke="black" stroke-dasharray="none" d="M 434 333 C 453.5 294.7 473 256.3 507 248 C 541 239.7 589.5 261.3 638 283" fill="none"/><path fill="black" stroke="black" d="" transform="translate(434,333) scale(1,1) rotate(-49.3)"/><path fill="black" stroke="black" d="M 8 0 L 0 4 L 8 8 z" transform="translate(645,288.9) scale(1,1) rotate(-165.1)"/><g><g label-idx="0" cursor="move" transform="translate(517.9, 246.3)"><rect fill="white" rx="3" ry="3" x="0" y="0" width="0" height="0"/><text text-anchor="middle" font-size="14pt" font-family="OpenSansCondensedLight" y="0.8em" display="none" xml:space="preserve" transform="translate(0,0)"/></g></g></g><g transform="translate(396,197)"><g><g>
<path d="M86.1,0H0v48.4h86.1V0L86.1,0z" stroke="#000000" stroke-dasharray="none" fill="#FFFFFF"/>
<rect x="3.8" y="2.2" width="78.6" height="44" fill="none"/>
<circle fill="none" cx="43.1" cy="0" r="0.1"/>
<circle fill="none" cx="64.4" cy="0" r="0.1"/>
<circle fill="none" cx="86.1" cy="12.2" r="0.1"/>
<circle fill="none" cx="86.1" cy="24.2" r="0.1"/>
<circle fill="none" cx="86.1" cy="36.2" r="0.1"/>
<circle fill="none" cx="64.4" cy="48.4" r="0.1"/>
<circle fill="none" cx="43.1" cy="48.4" r="0.1"/>
<circle fill="none" cx="21.7" cy="48.4" r="0.1"/>
<circle fill="none" cx="0" cy="36.2" r="0.1"/>
<circle fill="none" cx="0" cy="24.2" r="0.1"/>
<circle fill="none" cx="0" cy="12.2" r="0.1"/>
<circle fill="none" cx="21.7" cy="0" r="0.1"/>
</g></g><rect stroke="none" stroke-width="1" fill="#FFFFFF" x="0" y="0" width="40" height="20" transform="translate(126,14.1)"/><path stroke="#000000" fill="none" d="M86.1,24.2 C103.1,41.1 109.1,7.2 126 24.1"/><text font-family="OpenSansCondensedLight" font-size="14pt" fill="black" transform="translate(126,14.1)" text-anchor="middle"><tspan x="20" y="16.3">120</tspan></text><rect stroke-width="0" fill="none" width="78.6" height="44" transform="translate(3.8,2.2)"/><text font-family="OpenSansCondensedLight" font-size="14pt" fill="black" transform="translate(3.8,2.2)" text-anchor="middle"><tspan x="39.3" y="17.8">DESIGN</tspan><tspan x="39.3" y="38.8">INTERFACE</tspan></text><path stroke="#000000" fill="none" transform="translate(3.8,2.2)" d="M 0 0"/></g><g><path stroke="black" stroke-dasharray="none" d="M 362 286 C 377 286 377 240 392 240" fill="none"/><path fill="black" stroke="black" d="" transform="translate(362,286) scale(1,1) rotate(-57.3)"/><path fill="black" stroke="black" d="M 8 0 L 0 4 L 8 8 z" transform="translate(399.4,235.2) scale(1,1) rotate(-237.3)"/><g><g label-idx="0" cursor="move" transform="translate(377, 263)"><rect fill="white" rx="3" ry="3" x="0" y="0" width="0" height="0"/><text text-anchor="middle" font-size="14pt" font-family="OpenSansCondensedLight" y="0.8em" display="none" xml:space="preserve" transform="translate(0,0)"/></g></g></g><g><path stroke="black" stroke-dasharray="none" d="M 440 197 C 440 197 440 176 440 176" fill="none"/><path fill="black" stroke="black" d="" transform="translate(440,197) scale(1,1) rotate(-90)"/><path fill="black" stroke="black" d="M 8 0 L 0 4 L 8 8 z" transform="translate(444,168) scale(1,1) rotate(-270)"/><g><g label-idx="0" cursor="move" transform="translate(440, 186.5)"><rect fill="white" rx="3" ry="3" x="0" y="0" width="0" height="0"/><text text-anchor="middle" font-size="14pt" font-family="OpenSansCondensedLight" y="0.8em" display="none" xml:space="preserve" transform="translate(0,0)"/></g></g></g><g transform="translate(34,100)"><g><g>
<path d="M27.2,0c-5.9,0,-10.9,4.6,-12.7,11.1C6.4,12.3,0,20.8,0,31.3c0,11.2,7.3,20.3,16.3,20.3c0.5,0,0.9,0,1.4,-0.1c1.6,6.6,6.4,11.5,12.4,11.5c4.8,0,9.1,-3.4,11.2,-8.4c2.2,2.9,5.4,4.7,9,4.7c5.5,0,10.3,-4.4,12,-10.6c0.1,0,0.1,0,0.2,0c7.4,0,13.5,-7.5,13.5,-16.8s-6,-16.8,-13.5,-16.8c-1.4,0,-2.7,0.3,-3.9,0.7c-1.2,-6.3,-5.8,-11.1,-11.2,-11.1c-3.2,0,-6,1.6,-8.2,4.3C36.9,3.7,32.4,0,27.2,0L27.2,0z" stroke="#000000" stroke-dasharray="none" fill="#FFFFFF"/>
<rect x="6.9" y="19.6" width="61" height="23.9" fill="none"/>
<circle fill="none" cx="39.2" cy="9" r="0.1"/>
<circle fill="none" cx="49.9" cy="5.1" r="0.1"/>
<circle fill="none" cx="58.6" cy="15.8" r="0.1"/>
<circle fill="none" cx="76" cy="31.3" r="0.1"/>
<circle fill="none" cx="62.3" cy="48.7" r="0.1"/>
<circle fill="none" cx="51.2" cy="59.3" r="0.1"/>
<circle fill="none" cx="41.3" cy="54.6" r="0.1"/>
<circle fill="none" cx="29.7" cy="63" r="0.1"/>
<circle fill="none" cx="0" cy="31.3" r="0.1"/>
<circle fill="none" cx="17.7" cy="51.5" r="0.1"/>
<circle fill="none" cx="14.6" cy="11.1" r="0.1"/>
<circle fill="none" cx="27.2" cy="0" r="0.1"/>
</g></g><rect stroke="none" stroke-width="0" fill="#FFFFFF" x="0" y="0" width="0" height="0" transform="translate(75.9,31.2)"/><path stroke="#000000" fill="none" d=""/><text font-family="OpenSansCondensedLight" font-size="14pt" fill="black" transform="translate(75.9,31.2)"/><rect stroke-width="0" fill="none" width="61" height="23.9" transform="translate(6.9,19.6)"/><text font-family="OpenSansCondensedLight" font-size="14pt" fill="black" transform="translate(6.9,19.6)" text-anchor="middle"><tspan x="30.5" y="18.2"> </tspan></text><path stroke="#000000" fill="none" transform="translate(6.9,19.6)" d="M 0 0"/></g><g transform="translate(36,311)"><g><g>
<path d="M27.2,0c-5.9,0,-10.9,4.6,-12.7,11.1C6.4,12.3,0,20.8,0,31.3c0,11.2,7.3,20.3,16.3,20.3c0.5,0,0.9,0,1.4,-0.1c1.6,6.6,6.4,11.5,12.4,11.5c4.8,0,9.1,-3.4,11.2,-8.4c2.2,2.9,5.4,4.7,9,4.7c5.5,0,10.3,-4.4,12,-10.6c0.1,0,0.1,0,0.2,0c7.4,0,13.5,-7.5,13.5,-16.8s-6,-16.8,-13.5,-16.8c-1.4,0,-2.7,0.3,-3.9,0.7c-1.2,-6.3,-5.8,-11.1,-11.2,-11.1c-3.2,0,-6,1.6,-8.2,4.3C36.9,3.7,32.4,0,27.2,0L27.2,0z" stroke="#000000" stroke-dasharray="none" fill="#FFFFFF"/>
<rect x="6.9" y="19.6" width="61" height="23.9" fill="none"/>
<circle fill="none" cx="39.2" cy="9" r="0.1"/>
<circle fill="none" cx="49.9" cy="5.1" r="0.1"/>
<circle fill="none" cx="58.6" cy="15.8" r="0.1"/>
<circle fill="none" cx="76" cy="31.3" r="0.1"/>
<circle fill="none" cx="62.3" cy="48.7" r="0.1"/>
<circle fill="none" cx="51.2" cy="59.3" r="0.1"/>
<circle fill="none" cx="41.3" cy="54.6" r="0.1"/>
<circle fill="none" cx="29.7" cy="63" r="0.1"/>
<circle fill="none" cx="0" cy="31.3" r="0.1"/>
<circle fill="none" cx="17.7" cy="51.5" r="0.1"/>
<circle fill="none" cx="14.6" cy="11.1" r="0.1"/>
<circle fill="none" cx="27.2" cy="0" r="0.1"/>
</g></g><rect stroke="none" stroke-width="0" fill="#FFFFFF" x="0" y="0" width="0" height="0" transform="translate(75.9,31.2)"/><path stroke="#000000" fill="none" d=""/><text font-family="OpenSansCondensedLight" font-size="14pt" fill="black" transform="translate(75.9,31.2)"/><rect stroke-width="0" fill="none" width="61" height="23.9" transform="translate(6.9,19.6)"/><text font-family="OpenSansCondensedLight" font-size="14pt" fill="black" transform="translate(6.9,19.6)" text-anchor="middle"><tspan x="30.5" y="18.2"> </tspan></text><path stroke="#000000" fill="none" transform="translate(6.9,19.6)" d="M 0 0"/></g><g transform="translate(34,239)"><g><g>
<path d="M27.2,0c-5.9,0,-10.9,4.6,-12.7,11.1C6.4,12.3,0,20.8,0,31.3c0,11.2,7.3,20.3,16.3,20.3c0.5,0,0.9,0,1.4,-0.1c1.6,6.6,6.4,11.5,12.4,11.5c4.8,0,9.1,-3.4,11.2,-8.4c2.2,2.9,5.4,4.7,9,4.7c5.5,0,10.3,-4.4,12,-10.6c0.1,0,0.1,0,0.2,0c7.4,0,13.5,-7.5,13.5,-16.8s-6,-16.8,-13.5,-16.8c-1.4,0,-2.7,0.3,-3.9,0.7c-1.2,-6.3,-5.8,-11.1,-11.2,-11.1c-3.2,0,-6,1.6,-8.2,4.3C36.9,3.7,32.4,0,27.2,0L27.2,0z" stroke="#000000" stroke-dasharray="none" fill="#FFFFFF"/>
<rect x="6.9" y="19.6" width="61" height="23.9" fill="none"/>
<circle fill="none" cx="39.2" cy="9" r="0.1"/>
<circle fill="none" cx="49.9" cy="5.1" r="0.1"/>
<circle fill="none" cx="58.6" cy="15.8" r="0.1"/>
<circle fill="none" cx="76" cy="31.3" r="0.1"/>
<circle fill="none" cx="62.3" cy="48.7" r="0.1"/>
<circle fill="none" cx="51.2" cy="59.3" r="0.1"/>
<circle fill="none" cx="41.3" cy="54.6" r="0.1"/>
<circle fill="none" cx="29.7" cy="63" r="0.1"/>
<circle fill="none" cx="0" cy="31.3" r="0.1"/>
<circle fill="none" cx="17.7" cy="51.5" r="0.1"/>
<circle fill="none" cx="14.6" cy="11.1" r="0.1"/>
<circle fill="none" cx="27.2" cy="0" r="0.1"/>
</g></g><rect stroke="none" stroke-width="0" fill="#FFFFFF" x="0" y="0" width="0" height="0" transform="translate(75.9,31.2)"/><path stroke="#000000" fill="none" d=""/><text font-family="OpenSansCondensedLight" font-size="14pt" fill="black" transform="translate(75.9,31.2)"/><rect stroke-width="0" fill="none" width="61" height="23.9" transform="translate(6.9,19.6)"/><text font-family="OpenSansCondensedLight" font-size="14pt" fill="black" transform="translate(6.9,19.6)" text-anchor="middle"><tspan x="30.5" y="18.2"> </tspan></text><path stroke="#000000" fill="none" transform="translate(6.9,19.6)" d="M 0 0"/></g><g transform="translate(33,170)"><g><g>
<path d="M27.2,0c-5.9,0,-10.9,4.6,-12.7,11.1C6.4,12.3,0,20.8,0,31.3c0,11.2,7.3,20.3,16.3,20.3c0.5,0,0.9,0,1.4,-0.1c1.6,6.6,6.4,11.5,12.4,11.5c4.8,0,9.1,-3.4,11.2,-8.4c2.2,2.9,5.4,4.7,9,4.7c5.5,0,10.3,-4.4,12,-10.6c0.1,0,0.1,0,0.2,0c7.4,0,13.5,-7.5,13.5,-16.8s-6,-16.8,-13.5,-16.8c-1.4,0,-2.7,0.3,-3.9,0.7c-1.2,-6.3,-5.8,-11.1,-11.2,-11.1c-3.2,0,-6,1.6,-8.2,4.3C36.9,3.7,32.4,0,27.2,0L27.2,0z" stroke="#000000" stroke-dasharray="none" fill="#FFFFFF"/>
<rect x="6.9" y="19.6" width="61" height="23.9" fill="none"/>
<circle fill="none" cx="39.2" cy="9" r="0.1"/>
<circle fill="none" cx="49.9" cy="5.1" r="0.1"/>
<circle fill="none" cx="58.6" cy="15.8" r="0.1"/>
<circle fill="none" cx="76" cy="31.3" r="0.1"/>
<circle fill="none" cx="62.3" cy="48.7" r="0.1"/>
<circle fill="none" cx="51.2" cy="59.3" r="0.1"/>
<circle fill="none" cx="41.3" cy="54.6" r="0.1"/>
<circle fill="none" cx="29.7" cy="63" r="0.1"/>
<circle fill="none" cx="0" cy="31.3" r="0.1"/>
<circle fill="none" cx="17.7" cy="51.5" r="0.1"/>
<circle fill="none" cx="14.6" cy="11.1" r="0.1"/>
<circle fill="none" cx="27.2" cy="0" r="0.1"/>
</g></g><rect stroke="none" stroke-width="0" fill="#FFFFFF" x="0" y="0" width="0" height="0" transform="translate(75.9,31.2)"/><path stroke="#000000" fill="none" d=""/><text font-family="OpenSansCondensedLight" font-size="14pt" fill="black" transform="translate(75.9,31.2)"/><rect stroke-width="0" fill="none" width="61" height="23.9" transform="translate(6.9,19.6)"/><text font-family="OpenSansCondensedLight" font-size="14pt" fill="black" transform="translate(6.9,19.6)" text-anchor="middle"><tspan x="30.5" y="18.2"> </tspan></text><path stroke="#000000" fill="none" transform="translate(6.9,19.6)" d="M 0 0"/></g><g transform="translate(17,111)"><g><g>
<g fill="#FFFFFF">
    <path d="M0,126.7c2.9,-0.4,5.4,-12.9,5.4,-33.9V32.8C5.4,11.8,7.5,0,10.2,0h3.8v256.8h-3.8c-2.8,0,-4.9,-11.8,-4.9,-33.2V160.6C5.4,140,2.9,127.1,0,126.7"/>
</g>
<g stroke="#000000" stroke-dasharray="none" fill="#FFFFFF">
    <path stroke-linejoin="round" d="M14,256.8h-3.8c-2.8,0,-4.9,-11.8,-4.9,-33.2V160.6C5.4,140,2.9,127.1,0,126.7"/>
    <path stroke-linejoin="round" d="M0,126.7c2.9,-0.4,5.4,-12.9,5.4,-33.9V32.8C5.4,11.8,7.5,0,10.2,0h3.8"/>
</g>
<rect x="0.9" y="5.5" fill="none" width="12.1" height="245.7"/>
<circle fill="none" cx="10.5" cy="0.2" r="0.1"/>
<circle fill="none" cx="14" cy="0.2" r="0.1"/>
<circle fill="none" cx="14" cy="257" r="0.1"/>
<circle fill="none" cx="10.5" cy="257" r="0.1"/>
<circle fill="none" cx="6.5" cy="246.8" r="0.1"/>
<circle fill="none" cx="5.4" cy="203.6" r="0.1"/>
<circle fill="none" cx="5.3" cy="155.3" r="0.1"/>
<circle fill="none" cx="2.5" cy="130.8" r="0.1"/>
<circle fill="none" cx="2.5" cy="123.3" r="0.1"/>
<circle fill="none" cx="5.4" cy="94.3" r="0.1"/>
<circle fill="none" cx="5.3" cy="38.4" r="0.1"/>
<circle fill="none" cx="6.4" cy="11.3" r="0.1"/>
</g></g><rect stroke="none" stroke-width="0" fill="#FFFFFF" x="0" y="0" width="0" height="0" transform="translate(13.9,0.1)"/><path stroke="#000000" fill="none" d=""/><text font-family="OpenSansCondensedLight" font-size="14pt" fill="black" transform="translate(13.9,0.1)"/><rect stroke-width="0" fill="none" width="42.3" transform="translate(-14.1,267.1)"/><text font-family="OpenSansCondensedLight" font-size="14pt" fill="black" transform="translate(-14.1,267.1)" text-anchor="middle"><tspan x="21.1" y="16.8"> 112</tspan></text><path stroke="#000000" fill="none" transform="translate(-14.1,267.1)" d="M 7.5 19 34.8 19"/></g><g><path stroke="black" stroke-dasharray="none" d="M 116 336 C 126.6 327.4 137.2 318.9 150 285 C 162.8 251.1 178 191.9 190 160 C 202 128.1 211 123.6 220 119" fill="none"/><path fill="black" stroke="black" d="M 8 0 L 0 4 L 8 8 z" transform="translate(108.7,340.8) scale(1,1) rotate(-56.8)"/><path fill="black" stroke="black" d="M 8 0 L 0 4 L 8 8 z" transform="translate(228.2,115.4) scale(1,1) rotate(-233.3)"/><g><g label-idx="0" cursor="move" transform="translate(168.6, 227.3)"><rect fill="white" rx="3" ry="3" x="0" y="0" width="0" height="0"/><text text-anchor="middle" font-size="14pt" font-family="OpenSansCondensedLight" y="0.8em" display="none" xml:space="preserve" transform="translate(0,0)"/></g></g></g><g><path stroke="black" stroke-dasharray="none" d="M 113 262 C 166.5 262 166.5 119 220 119" fill="none"/><path fill="black" stroke="black" d="M 8 0 L 0 4 L 8 8 z" transform="translate(104.8,265.6) scale(1,1) rotate(-53)"/><path fill="black" stroke="black" d="M 8 0 L 0 4 L 8 8 z" transform="translate(228.2,115.4) scale(1,1) rotate(-233)"/><g><g label-idx="0" cursor="move" transform="translate(166.5, 190.5)"><rect fill="white" rx="3" ry="3" x="0" y="0" width="0" height="0"/><text text-anchor="middle" font-size="14pt" font-family="OpenSansCondensedLight" y="0.8em" display="none" xml:space="preserve" transform="translate(0,0)"/></g></g></g><g><path stroke="black" stroke-dasharray="none" d="M 115 196 C 167 196 167 118 219 118" fill="none"/><path fill="black" stroke="black" d="M 8 0 L 0 4 L 8 8 z" transform="translate(106.6,197.8) scale(1,1) rotate(-37.2)"/><path fill="black" stroke="black" d="M 8 0 L 0 4 L 8 8 z" transform="translate(227.4,116.2) scale(1,1) rotate(-217.2)"/><g><g label-idx="0" cursor="move" transform="translate(167, 157)"><rect fill="white" rx="3" ry="3" x="0" y="0" width="0" height="0"/><text text-anchor="middle" font-size="14pt" font-family="OpenSansCondensedLight" y="0.8em" display="none" xml:space="preserve" transform="translate(0,0)"/></g></g></g><g><path stroke="black" stroke-dasharray="none" d="M 118 130 C 167.5 130 167.5 114 217 114" fill="none"/><path fill="black" stroke="black" d="M 8 0 L 0 4 L 8 8 z" transform="translate(109.4,127) scale(1,1) rotate(-8.9)"/><path fill="black" stroke="black" d="M 8 0 L 0 4 L 8 8 z" transform="translate(225.6,117) scale(1,1) rotate(-188.9)"/><g><g label-idx="0" cursor="move" transform="translate(167.5, 122)"><rect fill="white" rx="3" ry="3" x="0" y="0" width="0" height="0"/><text text-anchor="middle" font-size="14pt" font-family="OpenSansCondensedLight" y="0.8em" display="none" xml:space="preserve" transform="translate(0,0)"/></g></g></g><g><path stroke="black" stroke-dasharray="none" d="M 337 265 C 344.5 265 344.5 156 352 156" fill="none"/><path fill="black" stroke="black" d="M 8 0 L 0 4 L 8 8 z" transform="translate(332,272.5) scale(1,1) rotate(-82.3)"/><path fill="black" stroke="black" d="M 8 0 L 0 4 L 8 8 z" transform="translate(357,148.5) scale(1,1) rotate(-262.3)"/><g><g label-idx="0" cursor="move" transform="translate(344.5, 210.5)"><rect fill="white" rx="3" ry="3" x="0" y="0" width="0" height="0"/><text text-anchor="middle" font-size="14pt" font-family="OpenSansCondensedLight" y="0.8em" display="none" xml:space="preserve" transform="translate(0,0)"/></g></g></g><g transform="translate(70,476)"><g><g>
<g stroke="#000000" stroke-dasharray="none" fill="#FFFFFF">
    <polygon points="35.8,119.1 0,59.5 35.8,0 107.3,0 143.1,59.5 107.3,119.1"/>
</g>
<rect x="26.1" y="16.4" fill="none" width="90.6" height="86.3"/>
<circle fill="none" cx="71.4" cy="0" r="0.1"/>
<circle fill="none" cx="107.3" cy="0" r="0.1"/>
<circle fill="none" cx="123.8" cy="27" r="0.1"/>
<circle fill="none" cx="143.1" cy="59.6" r="0.1"/>
<circle fill="none" cx="125.1" cy="89.5" r="0.1"/>
<circle fill="none" cx="107.3" cy="119.1" r="0.1"/>
<circle fill="none" cx="71.3" cy="119.1" r="0.1"/>
<circle fill="none" cx="35.6" cy="119.1" r="0.1"/>
<circle fill="none" cx="17.8" cy="89.6" r="0.1"/>
<circle fill="none" cx="0" cy="59.4" r="0.1"/>
<circle fill="none" cx="19.5" cy="26.9" r="0.1"/>
<circle fill="none" cx="35.5" cy="-0.1" r="0.1"/>
</g></g><rect stroke="none" stroke-width="1" fill="#FFFFFF" x="0" y="0" width="40" height="20" transform="translate(156.9,109.4)"/><path stroke="#000000" fill="none" d="M125.1,89.5 C131.3,112.6 153.4,86.3 159.6 109.4"/><text font-family="OpenSansCondensedLight" font-size="14pt" fill="black" transform="translate(156.9,109.4)" text-anchor="middle"><tspan x="20" y="16.3">114</tspan></text><rect stroke-width="0" fill="none" width="90.6" height="86.3" transform="translate(26.1,16.4)"/><text font-family="OpenSansCondensedLight" font-size="14pt" fill="black" transform="translate(26.1,16.4)" text-anchor="middle"><tspan x="45.3" y="28.4">MESSAGING</tspan><tspan x="45.3" y="49.4">SYSTEM</tspan><tspan x="45.3" y="70.4">GATEWAY</tspan></text><path stroke="#000000" fill="none" transform="translate(26.1,16.4)" d="M 0 0"/></g><g><path stroke="black" stroke-dasharray="none" d="M 170 470 C 191 470 191 385 212 385" fill="none"/><path fill="black" stroke="black" d="M 8 0 L 0 4 L 8 8 z" transform="translate(163.4,475.3) scale(1,1) rotate(-64.1)"/><path fill="black" stroke="black" d="M 8 0 L 0 4 L 8 8 z" transform="translate(218.6,379.7) scale(1,1) rotate(-244.1)"/><g><g label-idx="0" cursor="move" transform="translate(191, 427.5)"><rect fill="white" rx="3" ry="3" x="0" y="0" width="0" height="0"/><text text-anchor="middle" font-size="14pt" font-family="OpenSansCondensedLight" y="0.8em" display="none" xml:space="preserve" transform="translate(0,0)"/></g></g></g><g transform="translate(228,473)"><g><g>
<g stroke="#000000" stroke-dasharray="none" fill="#FFFFFF">
    <polygon points="35.8,119.1 0,59.5 35.8,0 107.3,0 143.1,59.5 107.3,119.1"/>
</g>
<rect x="26.1" y="16.4" fill="none" width="90.6" height="86.3"/>
<circle fill="none" cx="71.4" cy="0" r="0.1"/>
<circle fill="none" cx="107.3" cy="0" r="0.1"/>
<circle fill="none" cx="123.8" cy="27" r="0.1"/>
<circle fill="none" cx="143.1" cy="59.6" r="0.1"/>
<circle fill="none" cx="125.1" cy="89.5" r="0.1"/>
<circle fill="none" cx="107.3" cy="119.1" r="0.1"/>
<circle fill="none" cx="71.3" cy="119.1" r="0.1"/>
<circle fill="none" cx="35.6" cy="119.1" r="0.1"/>
<circle fill="none" cx="17.8" cy="89.6" r="0.1"/>
<circle fill="none" cx="0" cy="59.4" r="0.1"/>
<circle fill="none" cx="19.5" cy="26.9" r="0.1"/>
<circle fill="none" cx="35.5" cy="-0.1" r="0.1"/>
</g></g><rect stroke="none" stroke-width="1" fill="#FFFFFF" x="0" y="0" width="40" height="20" transform="translate(156.9,109.4)"/><path stroke="#000000" fill="none" d="M125.1,89.5 C131.3,112.6 153.4,86.3 159.6 109.4"/><text font-family="OpenSansCondensedLight" font-size="14pt" fill="black" transform="translate(156.9,109.4)" text-anchor="middle"><tspan x="20" y="16.3">116</tspan></text><rect stroke-width="0" fill="none" width="90.6" height="86.3" transform="translate(26.1,16.4)"/><text font-family="OpenSansCondensedLight" font-size="14pt" fill="black" transform="translate(26.1,16.4)" text-anchor="middle"><tspan x="45.3" y="28.4">MESSAGING</tspan><tspan x="45.3" y="49.4">SYSTEM</tspan><tspan x="45.3" y="70.4">INTERFACE</tspan></text><path stroke="#000000" fill="none" transform="translate(26.1,16.4)" d="M 0 0"/></g><g transform="translate(402,466)"><g><g>
<g stroke="#000000" stroke-dasharray="none" fill="#FFFFFF">
    <polygon points="35.8,119.1 0,59.5 35.8,0 107.3,0 143.1,59.5 107.3,119.1"/>
</g>
<rect x="26.1" y="16.4" fill="none" width="90.6" height="86.3"/>
<circle fill="none" cx="71.4" cy="0" r="0.1"/>
<circle fill="none" cx="107.3" cy="0" r="0.1"/>
<circle fill="none" cx="123.8" cy="27" r="0.1"/>
<circle fill="none" cx="143.1" cy="59.6" r="0.1"/>
<circle fill="none" cx="125.1" cy="89.5" r="0.1"/>
<circle fill="none" cx="107.3" cy="119.1" r="0.1"/>
<circle fill="none" cx="71.3" cy="119.1" r="0.1"/>
<circle fill="none" cx="35.6" cy="119.1" r="0.1"/>
<circle fill="none" cx="17.8" cy="89.6" r="0.1"/>
<circle fill="none" cx="0" cy="59.4" r="0.1"/>
<circle fill="none" cx="19.5" cy="26.9" r="0.1"/>
<circle fill="none" cx="35.5" cy="-0.1" r="0.1"/>
</g></g><rect stroke="none" stroke-width="1" fill="#FFFFFF" x="0" y="0" width="40" height="20" transform="translate(156.9,109.4)"/><path stroke="#000000" fill="none" d="M125.1,89.5 C131.3,112.6 153.4,86.3 159.6 109.4"/><text font-family="OpenSansCondensedLight" font-size="14pt" fill="black" transform="translate(156.9,109.4)" text-anchor="middle"><tspan x="20" y="16.3">118</tspan></text><rect stroke-width="0" fill="none" width="90.6" height="86.3" transform="translate(26.1,16.4)"/><text font-family="OpenSansCondensedLight" font-size="14pt" fill="black" transform="translate(26.1,16.4)" text-anchor="middle"><tspan x="45.3" y="38.9">MOBILE</tspan><tspan x="45.3" y="59.9">GATEWAY</tspan></text><path stroke="#000000" fill="none" transform="translate(26.1,16.4)" d="M 0 0"/></g><g><path stroke="black" stroke-dasharray="none" d="M 294 466 C 279 466 279 411 264 411" fill="none"/><path fill="black" stroke="black" d="M 8 0 L 0 4 L 8 8 z" transform="translate(294.5,474.9) scale(1,1) rotate(-118.8)"/><path fill="black" stroke="black" d="M 8 0 L 0 4 L 8 8 z" transform="translate(263.5,402.1) scale(1,1) rotate(61.2)"/><g><g label-idx="0" cursor="move" transform="translate(279, 438.5)"><rect fill="white" rx="3" ry="3" x="0" y="0" width="0" height="0"/><text text-anchor="middle" font-size="14pt" font-family="OpenSansCondensedLight" y="0.8em" display="none" xml:space="preserve" transform="translate(0,0)"/></g></g></g><g><path stroke="black" stroke-dasharray="none" d="M 434 459 C 410 459 410 379 386 379" fill="none"/><path fill="black" stroke="black" d="M 8 0 L 0 4 L 8 8 z" transform="translate(434.6,468) scale(1,1) rotate(-120.8)"/><path fill="black" stroke="black" d="M 8 0 L 0 4 L 8 8 z" transform="translate(385.4,370) scale(1,1) rotate(59.2)"/><g><g label-idx="0" cursor="move" transform="translate(410, 419)"><rect fill="white" rx="3" ry="3" x="0" y="0" width="0" height="0"/><text text-anchor="middle" font-size="14pt" font-family="OpenSansCondensedLight" y="0.8em" display="none" xml:space="preserve" transform="translate(0,0)"/></g></g></g></g><defs/></svg>