<svg xmlns="http://www.w3.org/2000/svg" xmlns:xlink="http://www.w3.org/1999/xlink" version="1.1" width="843.2" height="588.2" viewBox="7.4 30.9 843.2 588.2"><g><g transform="translate(123,31)"><g><g>
<path d="M101.8,0c-22,0,-40.7,14,-47.4,33.7C23.9,37.3,0,63.3,0,95.3c0,34.1,27.4,62,61,62c1.7,0,3.5,0,5.2,-0.4c5.9,20.3,24,35.1,46.2,35.1c18.1,0,34.1,-10.4,42,-25.6c8.4,8.9,20.3,14.4,33.6,14.4c20.7,0,38.4,-13.5,44.7,-32.4c0.4,0,0.4,0,0.9,0c27.8,0,50.4,-22.9,50.4,-51.2s-22.6,-51.3,-50.5,-51.3c-5.4,0,-10.2,0.9,-14.6,2.3c-4.5,-19.3,-21.6,-33.7,-42,-33.7c-11.9,0,-22.6,4.9,-30.6,13.1C138,11.2,121.2,0,101.8,0L101.8,0z" stroke="#000000" stroke-dasharray="none" fill="#FFFFFF"/>
<rect x="25.8" y="59.7" width="227.8" height="72.8" fill="none"/>
<circle fill="none" cx="146.4" cy="27.3" r="0.1"/>
<circle fill="none" cx="186.5" cy="15.5" r="0.1"/>
<circle fill="none" cx="219" cy="48" r="0.1"/>
<circle fill="none" cx="284" cy="95.5" r="0.1"/>
<circle fill="none" cx="232.7" cy="148.4" r="0.1"/>
<circle fill="none" cx="191.5" cy="180.7" r="0.1"/>
<circle fill="none" cx="154.4" cy="166.4" r="0.1"/>
<circle fill="none" cx="111" cy="192" r="0.1"/>
<circle fill="none" cx="0" cy="95.3" r="0.1"/>
<circle fill="none" cx="66.2" cy="156.9" r="0.1"/>
<circle fill="none" cx="54.4" cy="33.7" r="0.1"/>
<circle fill="none" cx="101.7" cy="0" r="0.1"/>
</g></g><rect stroke="none" stroke-width="1" fill="#FFFFFF" x="0" y="0" width="40" height="20" transform="translate(-80.1,85.2)"/><path stroke="#000000" fill="none" d="M0,95.3 C-17,78.3 -23.1,112.3 -40.1 95.3"/><text font-family="OpenSansCondensedLight" font-size="14pt" fill="black" transform="translate(-80.1,85.2)" text-anchor="middle"><tspan x="20" y="16.3">202</tspan></text><rect stroke-width="0" fill="none" width="227.8" height="72.8" transform="translate(25.8,59.7)"/><text font-family="OpenSansCondensedLight" font-size="14pt" fill="black" transform="translate(25.8,59.7)" text-anchor="middle"><tspan x="113.9" y="42.7">MESSAGING SYSTEM</tspan></text><path stroke="#000000" fill="none" transform="translate(25.8,59.7)" d="M 0 0"/></g><g transform="translate(622,233)"><g><g>
<path d="M65.5,0c-14.2,0,-26.1,8.3,-30.5,20C15.4,22.2,0,37.6,0,56.6c0,20.3,17.6,36.8,39.2,36.8c1.1,0,2.3,0,3.4,-0.2c3.8,12,15.4,20.8,29.7,20.8c11.6,0,21.9,-6.2,27,-15.2c5.4,5.3,13.1,8.6,21.6,8.6c13.3,0,24.7,-8,28.8,-19.2c0.3,0,0.3,0,0.6,0c17.9,0,32.4,-13.6,32.4,-30.4s-14.5,-30.5,-32.5,-30.5c-3.5,0,-6.6,0.6,-9.4,1.3c-2.9,-11.5,-13.9,-20,-27,-20c-7.7,0,-14.5,2.9,-19.7,7.8C88.7,6.6,77.9,0,65.5,0L65.5,0z" stroke="#000000" stroke-dasharray="none" fill="#FFFFFF"/>
<rect x="16.6" y="35.5" width="146.5" height="43.3" fill="none"/>
<circle fill="none" cx="94.1" cy="16.2" r="0.1"/>
<circle fill="none" cx="119.9" cy="9.2" r="0.1"/>
<circle fill="none" cx="140.8" cy="28.5" r="0.1"/>
<circle fill="none" cx="182.6" cy="56.7" r="0.1"/>
<circle fill="none" cx="149.7" cy="88.2" r="0.1"/>
<circle fill="none" cx="123.1" cy="107.3" r="0.1"/>
<circle fill="none" cx="99.3" cy="98.9" r="0.1"/>
<circle fill="none" cx="71.4" cy="114.1" r="0.1"/>
<circle fill="none" cx="0" cy="56.6" r="0.1"/>
<circle fill="none" cx="42.6" cy="93.2" r="0.1"/>
<circle fill="none" cx="35" cy="20" r="0.1"/>
<circle fill="none" cx="65.4" cy="0" r="0.1"/>
</g></g><rect stroke="none" stroke-width="0" fill="#FFFFFF" x="0" y="0" width="0" height="0" transform="translate(182.5,56.6)"/><path stroke="#000000" fill="none" d=""/><text font-family="OpenSansCondensedLight" font-size="14pt" fill="black" transform="translate(182.5,56.6)"/><rect stroke-width="0" fill="none" width="146.5" height="43.3" transform="translate(16.6,35.5)"/><text font-family="OpenSansCondensedLight" font-size="14pt" fill="black" transform="translate(16.6,35.5)" text-anchor="middle"><tspan x="73.3" y="17.4">MESSAGING</tspan><tspan x="73.3" y="38.4">SYSTEM 204</tspan></text><path stroke="#000000" fill="none" transform="translate(16.6,35.5)" d="M 98.4 41 126.4 41"/></g><g><path stroke="black" stroke-dasharray="none" d="M 413 131 C 514.5 131 514.5 285 616 285" fill="none"/><path fill="black" stroke="black" d="M 8 0 L 0 4 L 8 8 z" transform="translate(409.4,122.8) scale(1,1) rotate(37.3)"/><path fill="black" stroke="black" d="M 8 0 L 0 4 L 8 8 z" transform="translate(619.6,293.2) scale(1,1) rotate(-142.7)"/><g><g label-idx="0" cursor="move" transform="translate(514.5, 208)"><rect fill="white" rx="3" ry="3" x="0" y="0" width="0" height="0"/><text text-anchor="middle" font-size="14pt" font-family="OpenSansCondensedLight" y="0.8em" display="none" xml:space="preserve" transform="translate(0,0)"/></g></g></g><g transform="translate(304,293)"><g><g>
<g stroke="#000000" stroke-dasharray="none" fill="#FFFFFF">
    <polygon points="35.8,119.1 0,59.5 35.8,0 107.3,0 143.1,59.5 107.3,119.1"/>
</g>
<rect x="26.1" y="16.4" fill="none" width="90.6" height="86.3"/>
<circle fill="none" cx="71.4" cy="0" r="0.1"/>
<circle fill="none" cx="107.3" cy="0" r="0.1"/>
<circle fill="none" cx="123.8" cy="27" r="0.1"/>
<circle fill="none" cx="143.1" cy="59.6" r="0.1"/>
<circle fill="none" cx="125.1" cy="89.5" r="0.1"/>
<circle fill="none" cx="107.3" cy="119.1" r="0.1"/>
<circle fill="none" cx="71.3" cy="119.1" r="0.1"/>
<circle fill="none" cx="35.6" cy="119.1" r="0.1"/>
<circle fill="none" cx="17.8" cy="89.6" r="0.1"/>
<circle fill="none" cx="0" cy="59.4" r="0.1"/>
<circle fill="none" cx="19.5" cy="26.9" r="0.1"/>
<circle fill="none" cx="35.5" cy="-0.1" r="0.1"/>
</g></g><rect stroke="none" stroke-width="1" fill="#FFFFFF" x="0" y="0" width="40" height="20" transform="translate(-52.6,-13.2)"/><path stroke="#000000" fill="none" d="M19.5,26.9 C13.2,3.6 -9.1,30.1 -15.3 6.8"/><text font-family="OpenSansCondensedLight" font-size="14pt" fill="black" transform="translate(-52.6,-13.2)" text-anchor="middle"><tspan x="20" y="16.3">206</tspan></text><rect stroke-width="0" fill="none" width="90.6" height="86.3" transform="translate(26.1,16.4)"/><text font-family="OpenSansCondensedLight" font-size="14pt" fill="black" transform="translate(26.1,16.4)" text-anchor="middle"><tspan x="45.3" y="28.4">MESSAGING</tspan><tspan x="45.3" y="49.4">SYSTEM</tspan><tspan x="45.3" y="70.4">GATEWAY</tspan></text><path stroke="#000000" fill="none" transform="translate(26.1,16.4)" d="M 0 0"/></g><g><path stroke="black" stroke-dasharray="none" d="M 338 285 C 327.5 285 327.5 220 317 220" fill="none"/><path fill="black" stroke="black" d="M 8 0 L 0 4 L 8 8 z" transform="translate(336.2,294.2) scale(1,1) rotate(-107.2)"/><path fill="black" stroke="black" d="M 8 0 L 0 4 L 8 8 z" transform="translate(318.8,210.8) scale(1,1) rotate(72.8)"/><g><g label-idx="0" cursor="move" transform="translate(327.5, 252.5)"><rect fill="white" rx="3" ry="3" x="0" y="0" width="0" height="0"/><text text-anchor="middle" font-size="14pt" font-family="OpenSansCondensedLight" y="0.8em" display="none" xml:space="preserve" transform="translate(0,0)"/></g></g></g><g transform="translate(60,292)"><g><g>
<g stroke="#000000" stroke-dasharray="none" fill="#FFFFFF">
    <polygon points="35.8,119.1 0,59.5 35.8,0 107.3,0 143.1,59.5 107.3,119.1"/>
</g>
<rect x="26.1" y="16.4" fill="none" width="90.6" height="86.3"/>
<circle fill="none" cx="71.4" cy="0" r="0.1"/>
<circle fill="none" cx="107.3" cy="0" r="0.1"/>
<circle fill="none" cx="123.8" cy="27" r="0.1"/>
<circle fill="none" cx="143.1" cy="59.6" r="0.1"/>
<circle fill="none" cx="125.1" cy="89.5" r="0.1"/>
<circle fill="none" cx="107.3" cy="119.1" r="0.1"/>
<circle fill="none" cx="71.3" cy="119.1" r="0.1"/>
<circle fill="none" cx="35.6" cy="119.1" r="0.1"/>
<circle fill="none" cx="17.8" cy="89.6" r="0.1"/>
<circle fill="none" cx="0" cy="59.4" r="0.1"/>
<circle fill="none" cx="19.5" cy="26.9" r="0.1"/>
<circle fill="none" cx="35.5" cy="-0.1" r="0.1"/>
</g></g><rect stroke="none" stroke-width="1" fill="#FFFFFF" x="0" y="0" width="40" height="20" transform="translate(-52.6,-13.2)"/><path stroke="#000000" fill="none" d="M19.5,26.9 C13.2,3.6 -9.1,30.1 -15.3 6.8"/><text font-family="OpenSansCondensedLight" font-size="14pt" fill="black" transform="translate(-52.6,-13.2)" text-anchor="middle"><tspan x="20" y="16.3">208</tspan></text><rect stroke-width="0" fill="none" width="90.6" height="86.3" transform="translate(26.1,16.4)"/><text font-family="OpenSansCondensedLight" font-size="14pt" fill="black" transform="translate(26.1,16.4)" text-anchor="middle"><tspan x="45.3" y="28.4">MESSAGING</tspan><tspan x="45.3" y="49.4">SYSTEM</tspan><tspan x="45.3" y="70.4">INTERFACE</tspan></text><path stroke="#000000" fill="none" transform="translate(26.1,16.4)" d="M 0 0"/></g><g><path stroke="black" stroke-dasharray="none" d="M 173 286 C 200.5 286 200.5 229 228 229" fill="none"/><path fill="black" stroke="black" d="M 8 0 L 0 4 L 8 8 z" transform="translate(164.1,289.2) scale(1,1) rotate(-45.8)"/><path fill="black" stroke="black" d="M 8 0 L 0 4 L 8 8 z" transform="translate(236.9,225.8) scale(1,1) rotate(-225.8)"/><g><g label-idx="0" cursor="move" transform="translate(200.5, 257.5)"><rect fill="white" rx="3" ry="3" x="0" y="0" width="0" height="0"/><text text-anchor="middle" font-size="14pt" font-family="OpenSansCondensedLight" y="0.8em" display="none" xml:space="preserve" transform="translate(0,0)"/></g></g></g><g transform="translate(282,469)"><g><g>
<g stroke="#000000" stroke-dasharray="none" fill="#FFFFFF">
    <polygon points="35.8,119.1 0,59.5 35.8,0 107.3,0 143.1,59.5 107.3,119.1"/>
</g>
<rect x="26.1" y="16.4" fill="none" width="90.6" height="86.3"/>
<circle fill="none" cx="71.4" cy="0" r="0.1"/>
<circle fill="none" cx="107.3" cy="0" r="0.1"/>
<circle fill="none" cx="123.8" cy="27" r="0.1"/>
<circle fill="none" cx="143.1" cy="59.6" r="0.1"/>
<circle fill="none" cx="125.1" cy="89.5" r="0.1"/>
<circle fill="none" cx="107.3" cy="119.1" r="0.1"/>
<circle fill="none" cx="71.3" cy="119.1" r="0.1"/>
<circle fill="none" cx="35.6" cy="119.1" r="0.1"/>
<circle fill="none" cx="17.8" cy="89.6" r="0.1"/>
<circle fill="none" cx="0" cy="59.4" r="0.1"/>
<circle fill="none" cx="19.5" cy="26.9" r="0.1"/>
<circle fill="none" cx="35.5" cy="-0.1" r="0.1"/>
</g></g><rect stroke="none" stroke-width="1" fill="#FFFFFF" x="0" y="0" width="40" height="20" transform="translate(-80.1,49.3)"/><path stroke="#000000" fill="none" d="M0,59.4 C-17,42.4 -23.1,76.4 -40.1 59.4"/><text font-family="OpenSansCondensedLight" font-size="14pt" fill="black" transform="translate(-80.1,49.3)" text-anchor="middle"><tspan x="20" y="16.3">210</tspan></text><rect stroke-width="0" fill="none" width="90.6" height="86.3" transform="translate(26.1,16.4)"/><text font-family="OpenSansCondensedLight" font-size="14pt" fill="black" transform="translate(26.1,16.4)" text-anchor="middle"><tspan x="45.3" y="28.4">MESSAGING</tspan><tspan x="45.3" y="49.4">SYSTEM</tspan><tspan x="45.3" y="70.4">INTERFACE</tspan></text><path stroke="#000000" fill="none" transform="translate(26.1,16.4)" d="M 0 0"/></g><g><path stroke="black" stroke-dasharray="none" d="M 192 386 C 251.5 386 251.5 465 311 465" fill="none"/><path fill="black" stroke="black" d="M 8 0 L 0 4 L 8 8 z" transform="translate(187.2,378.7) scale(1,1) rotate(33.2)"/><path fill="black" stroke="black" d="M 8 0 L 0 4 L 8 8 z" transform="translate(315.8,472.3) scale(1,1) rotate(-146.8)"/><g><g label-idx="0" cursor="move" transform="translate(251.5, 425.5)"><rect fill="white" rx="3" ry="3" x="0" y="0" width="0" height="0"/><text text-anchor="middle" font-size="14pt" font-family="OpenSansCondensedLight" y="0.8em" display="none" xml:space="preserve" transform="translate(0,0)"/></g></g></g><g transform="translate(504,382)"><g><g>
<g stroke="#000000" stroke-dasharray="none" fill="#FFFFFF">
    <polygon points="35.8,119.1 0,59.5 35.8,0 107.3,0 143.1,59.5 107.3,119.1"/>
</g>
<rect x="26.1" y="16.4" fill="none" width="90.6" height="86.3"/>
<circle fill="none" cx="71.4" cy="0" r="0.1"/>
<circle fill="none" cx="107.3" cy="0" r="0.1"/>
<circle fill="none" cx="123.8" cy="27" r="0.1"/>
<circle fill="none" cx="143.1" cy="59.6" r="0.1"/>
<circle fill="none" cx="125.1" cy="89.5" r="0.1"/>
<circle fill="none" cx="107.3" cy="119.1" r="0.1"/>
<circle fill="none" cx="71.3" cy="119.1" r="0.1"/>
<circle fill="none" cx="35.6" cy="119.1" r="0.1"/>
<circle fill="none" cx="17.8" cy="89.6" r="0.1"/>
<circle fill="none" cx="0" cy="59.4" r="0.1"/>
<circle fill="none" cx="19.5" cy="26.9" r="0.1"/>
<circle fill="none" cx="35.5" cy="-0.1" r="0.1"/>
</g></g><rect stroke="none" stroke-width="1" fill="#FFFFFF" x="0" y="0" width="40" height="20" transform="translate(-14.6,-62.2)"/><path stroke="#000000" fill="none" d="M35.5,-0.1 C43,-28.3 3.7,-14 11.2 -42.2"/><text font-family="OpenSansCondensedLight" font-size="14pt" fill="black" transform="translate(-14.6,-62.2)" text-anchor="middle"><tspan x="20" y="16.3">212</tspan></text><rect stroke-width="0" fill="none" width="90.6" height="86.3" transform="translate(26.1,16.4)"/><text font-family="OpenSansCondensedLight" font-size="14pt" fill="black" transform="translate(26.1,16.4)" text-anchor="middle"><tspan x="45.3" y="28.4">MESSAGING</tspan><tspan x="45.3" y="49.4">SYSTEM</tspan><tspan x="45.3" y="70.4">INTERFACE</tspan></text><path stroke="#000000" fill="none" transform="translate(26.1,16.4)" d="M 0 0"/></g><g><path stroke="black" stroke-dasharray="none" d="M 435 388 C 466.5 388 466.5 436 498 436" fill="none"/><path fill="black" stroke="black" d="M 8 0 L 0 4 L 8 8 z" transform="translate(431.4,379.8) scale(1,1) rotate(37.7)"/><path fill="black" stroke="black" d="M 8 0 L 0 4 L 8 8 z" transform="translate(501.6,444.2) scale(1,1) rotate(-142.3)"/><g><g label-idx="0" cursor="move" transform="translate(466.5, 412)"><rect fill="white" rx="3" ry="3" x="0" y="0" width="0" height="0"/><text text-anchor="middle" font-size="14pt" font-family="OpenSansCondensedLight" y="0.8em" display="none" xml:space="preserve" transform="translate(0,0)"/></g></g></g><g transform="translate(700,389)"><g><g>
<g stroke="#000000" stroke-dasharray="none" fill="#FFFFFF">
    <polygon points="35.8,119.1 0,59.5 35.8,0 107.3,0 143.1,59.5 107.3,119.1"/>
</g>
<rect x="26.1" y="16.4" fill="none" width="90.6" height="86.3"/>
<circle fill="none" cx="71.4" cy="0" r="0.1"/>
<circle fill="none" cx="107.3" cy="0" r="0.1"/>
<circle fill="none" cx="123.8" cy="27" r="0.1"/>
<circle fill="none" cx="143.1" cy="59.6" r="0.1"/>
<circle fill="none" cx="125.1" cy="89.5" r="0.1"/>
<circle fill="none" cx="107.3" cy="119.1" r="0.1"/>
<circle fill="none" cx="71.3" cy="119.1" r="0.1"/>
<circle fill="none" cx="35.6" cy="119.1" r="0.1"/>
<circle fill="none" cx="17.8" cy="89.6" r="0.1"/>
<circle fill="none" cx="0" cy="59.4" r="0.1"/>
<circle fill="none" cx="19.5" cy="26.9" r="0.1"/>
<circle fill="none" cx="35.5" cy="-0.1" r="0.1"/>
</g></g><rect stroke="none" stroke-width="1" fill="#FFFFFF" x="0" y="0" width="40" height="20" transform="translate(51.2,169)"/><path stroke="#000000" fill="none" d="M71.3,119.1 C50.1,140.2 92.4,147.9 71.2 169"/><text font-family="OpenSansCondensedLight" font-size="14pt" fill="black" transform="translate(51.2,169)" text-anchor="middle"><tspan x="20" y="16.3">214</tspan></text><rect stroke-width="0" fill="none" width="90.6" height="86.3" transform="translate(26.1,16.4)"/><text font-family="OpenSansCondensedLight" font-size="14pt" fill="black" transform="translate(26.1,16.4)" text-anchor="middle"><tspan x="45.3" y="28.4">MESSAGING</tspan><tspan x="45.3" y="49.4">SYSTEM</tspan><tspan x="45.3" y="70.4">INTERFACE</tspan></text><path stroke="#000000" fill="none" transform="translate(26.1,16.4)" d="M 0 0"/></g><g><path stroke="black" stroke-dasharray="none" d="M 802 384 C 788.5 384 788.5 328 775 328" fill="none"/><path fill="black" stroke="black" d="M 8 0 L 0 4 L 8 8 z" transform="translate(801.4,392.7) scale(1,1) rotate(-115.2)"/><path fill="black" stroke="black" d="M 8 0 L 0 4 L 8 8 z" transform="translate(775.6,319.3) scale(1,1) rotate(64.8)"/><g><g label-idx="0" cursor="move" transform="translate(788.5, 356)"><rect fill="white" rx="3" ry="3" x="0" y="0" width="0" height="0"/><text text-anchor="middle" font-size="14pt" font-family="OpenSansCondensedLight" y="0.8em" display="none" xml:space="preserve" transform="translate(0,0)"/></g></g></g></g><defs/></svg>